<?xml version="1.0" standalone="no"?>
<!DOCTYPE svg PUBLIC "-//W3C//DTD SVG 20010904//EN"
 "http://www.w3.org/TR/2001/REC-SVG-20010904/DTD/svg10.dtd">
<svg version="1.0" xmlns="http://www.w3.org/2000/svg"
 width="512.000000pt" height="512.000000pt" viewBox="0 0 512.000000 512.000000"
 preserveAspectRatio="xMidYMid meet">

<g transform="translate(0.000000,512.000000) scale(0.100000,-0.100000)"
fill="#000000" stroke="none">
<path d="M2355 3584 c-157 -23 -312 -65 -453 -121 -47 -18 -66 -22 -76 -14
-11 9 -20 1 -44 -36 -38 -60 -76 -143 -98 -219 -15 -52 -18 -128 -23 -599 l-6
-540 -28 -56 c-35 -73 -84 -122 -158 -159 -84 -43 -99 -60 -99 -117 0 -61 27
-106 79 -133 52 -26 55 -26 110 14 72 52 96 62 318 126 114 34 227 72 250 85
96 57 163 173 163 285 l0 59 -58 40 c-71 48 -175 159 -221 235 -109 182 -142
410 -78 549 34 74 103 141 183 179 108 50 136 49 246 -10 276 -150 526 -234
741 -249 56 -4 94 -11 103 -20 41 -42 -22 -312 -108 -458 -46 -78 -162 -199
-226 -235 l-42 -24 0 -62 c0 -116 65 -231 163 -288 23 -14 136 -52 251 -86
223 -65 245 -74 317 -126 55 -40 58 -40 110 -14 52 27 79 72 79 133 0 57 -15
74 -99 117 -74 37 -123 86 -158 159 l-28 56 -6 540 c-5 471 -8 547 -23 599
-22 76 -60 159 -98 219 -24 38 -33 45 -44 36 -11 -9 -25 -7 -62 9 -75 32 -231
79 -338 103 -79 17 -139 22 -304 24 -113 2 -218 1 -235 -1z"/>
</g>
</svg>
